/* XPM */
static char *result[] = {
/* columns rows colors chars-per-pixel */
"48 48 10 1 ",
"  c black",
". c #4E367C",
"X c #704092",
"o c #7B46A0",
"O c #9B51B7",
"+ c #A567AD",
"@ c #AF6DB7",
"# c #B780B4",
"$ c #DBB0C7",
"% c None",
/* pixels */
"%%%%%%%%%%%%%%%%%%%%%%%%%%%%%%%%%%%%%%%%%%%%%%%%",
"%%%%%%%%%%%%%%%%%%%%%%%%%%%%%%%%%%%%%%%%%%%%%%%%",
"%%%%%%%%%%%%%%%%%%%%%%%%%%%%%%%%%%%%%%%%%%%%%%%%",
"%%%%%%%%%%%%%%%%%%%%%%%%%%%%%%%%%%%%%%%%%%%%%%%%",
"%%%%%%%%%%%%%%%%%%%%%%%%%%%%%%%%%%%%%%%%%%%%%%%%",
"%%%%%%%%%%%%%%%%%%%%%%%%%%%%%%%%%%%%%%%%%%%%%%%%",
"%%%%%%%%%%%%%%%%%%%%%%%%%%%%%%%%%%%%%%%%%%%%%%%%",
"%%%%%%%%%%%%%%%%%%%%%%%%%%%%%%%%%%%%%%%%%%%%%%%%",
"%%%%%%%%%%%%%%%%%%%%%%%%%%%%%%%%%%%%%%%%%%%%%%%%",
"%%%%%%%%%%%%%%%%%%%%%%%%%%%%%%%%%%%%%%%%%%%%%%%%",
"%%%%%%%%%%%%%%%%%%%%%     %%%%%%%%%%%%%%%%%%%%%%",
"%%%%%%%%%%%%%%%%%%%% XOOOO  %%%%%%%%%%%%%%%%%%%%",
"%%%%%%%%%%%%%%%%%%% XoO@@+OO %%%%%%%%%%%%%%%%%%%",
"%%%%%%%%%%%%%%%%%%% XO@@@@@+O %%%%%%%%%%%%%%%%%%",
"%%%%%%%%%%%%%%%%%% XoOO+@@@@@O %%%%%%%%%%%%%%%%%",
"%%%%%%%%%%%%%%%%%% XoOOO+@@@@O %%%%%%%%%%%%%%%%%",
"%%%%%%%%%%%%%%%%%% XoOOO+@@@@O %%%%%%%%%%%%%%%%%",
"%%%%%%%%%%%%%%%%%% XXOOOO+@@+O %%%%%%%%%%%%%%%%%",
"%%%%%%%%%%%%%  %%% XXoOO++@@O %%%%  %%%%%%%%%%%%",
"%%%%%%%%%%%%% # %% XXXOO++@+O %%%% $ %%%%%%%%%%%",
"%%%%%%%%%%%%% $o %% XXoOO+@O %%%%% # %%%%%%%%%%%",
"%%%%%%%%%%%%%% $o  OXXXO+@+O %%%%% $ %%%%%%%%%%%",
"%%%%%%%%%%  %%% #oooO+OO++Oo %%%  ## %%%%%%%%%%%",
"%%%%%%%%%% # %% XXXO@O++OOoX %  @O$ %%%%%%%%%%%%",
"%%%%%%%%%% #    ...@@+++++@@+ .@O# %%%%%%%%%%%%%",
"%%%%%%%%%%% $#OO++@@@++O++@@@O+O$ %%%%%%%%%%%%%%",
"%%%%%%%%%%%%  $oOOO++@O+@@O+@@O# %%%%%%%%%%%%%%%",
"%%%%%%%%%%%%%% #XoOO@@O@@+OOoOOo %%%%%%%%%%%%%%%",
"%%%%%%%%%%%%%%% ..Xo@++@@+o.X$#oo %%%%%%%%%%%%%%",
"%%%%%%%%%%%%%%% ...X+Oo+@O+o.. $oX   %%%%%%%%%%%",
"%%%%%%%%%%  %%% .Xo+OoXO+oOX. %   #XX %%%%%%%%%%",
"%%%%%%%%%% # % .X#XoOoXoO.oOO  %%%   %%%%%%%%%%%",
"%%%%%%%%%% $# .X$ X..X XO..$#oo  %%%%%%%%%%%%%%%",
"%%%%%%%%%%% #$#$ % .. % oX   $#XX %%%%%%%%%%%%%%",
"%%%%%%%%%%%%    %% .# % X %%%   $X %%%%%%%%%%%%%",
"%%%%%%%%%%%%%%%%% #$ %% #  %%%%%  %%%%%%%%%%%%%%",
"%%%%%%%%%%%%%%%% $  %%%% $# %%%%%%%%%%%%%%%%%%%%",
"%%%%%%%%%%%%%%%%  %%%%%%%  %%%%%%%%%%%%%%%%%%%%%",
"%%%%%%%%%%%%%%%%%%%%%%%%%%%%%%%%%%%%%%%%%%%%%%%%",
"%%%%%%%%%%%%%%%%%%%%%%%%%%%%%%%%%%%%%%%%%%%%%%%%",
"%%%%%%%%%%%%%%%%%%%%%%%%%%%%%%%%%%%%%%%%%%%%%%%%",
"%%%%%%%%%%%%%%%%%%%%%%%%%%%%%%%%%%%%%%%%%%%%%%%%",
"%%%%%%%%%%%%%%%%%%%%%%%%%%%%%%%%%%%%%%%%%%%%%%%%",
"%%%%%%%%%%%%%%%%%%%%%%%%%%%%%%%%%%%%%%%%%%%%%%%%",
"%%%%%%%%%%%%%%%%%%%%%%%%%%%%%%%%%%%%%%%%%%%%%%%%",
"%%%%%%%%%%%%%%%%%%%%%%%%%%%%%%%%%%%%%%%%%%%%%%%%",
"%%%%%%%%%%%%%%%%%%%%%%%%%%%%%%%%%%%%%%%%%%%%%%%%",
"%%%%%%%%%%%%%%%%%%%%%%%%%%%%%%%%%%%%%%%%%%%%%%%%"
};
