/* XPM */
static char *result[] = {
/* columns rows colors chars-per-pixel */
"48 48 15 1 ",
"  c #060608",
". c #412320",
"X c #59302C",
"o c #5C322D",
"O c #6D3B36",
"+ c #394071",
"@ c gray36",
"# c #434F65",
"$ c #9A544C",
"% c #6F7F9F",
"& c gray55",
"* c #8895AF",
"= c gray68",
"- c #A6B0C4",
"; c white",
/* pixels */
"++++++++++++++++++++++++++++++++++++++++++++++++",
"++++++++++++++++++++++++++++++++++++++++++++++++",
"++++++++++++++++++++++++++++++++++++++++++++++++",
"++++++++++++++++++++++++++++++++++++++++++++++++",
"++++++++++++++++++++++++++++++++++++++++++++++++",
"++++++++++++++++++++++++++++++++++++++++++++++++",
"+++++++++++++++++++*********++++++++++++++++++++",
"+++++++++++++++++++*********++++++++++++++++++++",
"+++++++++++++++++++*********++++++++++++++++++++",
"++++++++++********#*********##*******+++++++++++",
"++++++++++********#---------##*******+++++++++++",
"++++++++++********#---------##*******+++++++++++",
"#********#********#%%%%%%%%%##*******##*******##",
"#********#--------#%%%%%%%%%##-------##*******##",
"#********#--------#%%%%%%%%%##-------##*******##",
"#********#%%%%%%%%#%%%%%%%%%##%%%%%%%##*******##",
"#--------#%%%%%%%%#%%%%%%%%%##%%%%%%%##-------##",
"#--------#%%%%%%%%#%%%%%%%%%##%%%%%%%##-------##",
"#%%%%%%%%#%%%%%%%%X..XXXXXX.XX%%%%%%%##%%%%%%%##",
"#%%%%%%%%XXXX..XXXX..XXXXXX.XXXXX.XXXXX%%%%%%%##",
"#%%%%%%%%XXXX..XXXX..XXXXXX.XXXXX.XXXXX%%%%%%%##",
"#%%%%%%%%XXXX..OOOOooOOOOOOoOOOOO.XXXXX%%%%%%%##",
"#########OOOOooOOOOooOOOOOOoOOOOOoOOOOO#########",
"#########OOOOooOOOOooOOOOOOoOOOOOoOOOOO#########",
"#--------&&&=ooOOOOoo       OOOOOoOOOOO-------##",
"#%%%%%%%%&===ooOOOO  @===;;;  OOOoOOOOO%%%%%%%##",
"#%%%%%%%%&===ooOOOO  @===;;;  OOOoOOOOO%%%%%%%##",
"#%%%%%%%%OOOOooOOO @@=     @;; OOoOOOOO%%%%%%%##",
"#%%%%%%%%OOOOooOOO @@=     @;; OOoOOOOO%%%%%%%##",
"#%%%%%%%%OOOOooOOO @@=     @;; OOoOOOOO%%%%%%%##",
"#%%%%%%%%OOOOooO  @===========;  oOO=OO%%%%%%%##",
"#########OOOOooO  @===========;  oOO=OO#########",
"#########OOOOooO  @===========;  oOO=OO#########",
"#--------OOOOooO  @=====   ===;  oOO=OO-------##",
"#%%%%%%%%OOOOooO  @=====   ====  oOO=OO%%%%%%%##",
"#%%%%%%%%OOOOooO  @=====   ====  oOO=OO%%%%%%%##",
"#%%%%%%%%OOOOooO  @=====   ====  oOO=OO%%%%%%%##",
"#%%%%%%%%OOOOooO  @============  oOOOOO%%%%%%%##",
"#%%%%%%%%OOOOooO  @============  oOOOOO%%%%%%%##",
"#%%%%%%%%OOOOooO  @============  oOOOOO%%%%%%%##",
"#########OOOOooOOO             OOoOOOOO#########",
"#########OOOOooOOO             OOoOOOOO#########",
"#--------&&&=ooOOOOooOOOOOOoOOOOOoOOOOO-------##",
"#%%%%%%%%&===ooOOOOooOOOOOOoOOOOOoOOOOO%%%%%%%##",
"#%%%%%%%%&===ooOOOOooOOOOOOoOOOOOoOOOOO%%%%%%%##",
"#%%%%%%%%OOOOooOOOOooOOOOOOoOOOOOoOOOOO%%%%%%%##",
"#%%%%%%%%$$$$oo$$$$oo$$$$$$o$$$$$o$$$$$%%%%%%%##",
"#%%%%%%%%$$$$oo$$$$oo$$$$$$o$$$$$o$$$$$%%%%%%%##"
};
