/* XPM */
static char *result[] = {
/* columns rows colors chars-per-pixel */
"48 48 46 1 ",
"  c black",
". c #160000",
"X c #1B0000",
"o c #290000",
"O c #360000",
"+ c #1E2325",
"@ c #242A2C",
"# c #2A3033",
"$ c #2F373A",
"% c #430000",
"& c #43000D",
"* c #51000D",
"= c #510D0D",
"- c #6B3636",
"; c #743E3E",
": c #343C40",
"> c #3B4348",
", c #40494E",
"< c #455056",
"1 c #4A565C",
"2 c #515151",
"3 c gray37",
"4 c #556269",
"5 c gray42",
"6 c gray43",
"7 c #606F76",
"8 c #797979",
"9 c #916666",
"0 c #976E6E",
"q c #847874",
"w c #8B7E71",
"e c #868686",
"r c #898989",
"t c #9F9388",
"y c gray58",
"u c gray63",
"i c #A4A4A4",
"p c #AEAEAE",
"a c #B4AAA0",
"s c #BCBCBC",
"d c #C99494",
"f c #C9AEAE",
"g c #D7AEAE",
"h c #D7D7D7",
"j c #EAE7E7",
"k c None",
/* pixels */
"kkkkkkkkkkkkkkkkkkkkkkkkkkkkkkkkkkkkkkkkkkkkkkkk",
"kkkkkkkkkkkkkkkkkkkkkkkkkkkkkkkkkkkkkkkkkkkkkkkk",
"kkkkkkkkkkkkkkkkkkkkkkkkkkkkk#### kkkkkkkkkkkkkk",
"kkkkkk   kkkkkkkkkkkkkkkkkkk $$$$# kkkkkkkkkkkkk",
"kkk ,,,,,, kkkkkkkkkkkkkkkkk$:#:,:$#kkkkkkkkkkkk",
"kk ,>>>>,<,  kkkkkkkkkkkkkk ,# #:,:$kkkkkkkkkkkk",
"k,>::##:>>,<< kkkkkkkkkkkkk #kkk ::$ kkkkkkkkkkk",
" :#  kk #:>,<< kkkkkkkkkkkk  kkk :$# kkkkkkkkkkk",
"># kkkkk #:>,<, kkkkkkkkkkkkkkk #,$# kkkkkkkkkkk",
"#kkkkkkkkk :>,<, kkkkkkkkkkkkkk#:,#+ kkkkkkkkkkk",
" kkkkkkkkk :>,7,: kkkkkkkkkkkk :,:#+kkkkkkkkkkkk",
"kkkkkkkkkkk #><1>: kkkk  kkk #:,:$+ kkkkkkkkkkkk",
"kkkkkkkkkkkk :>,7,,  +###+  :,,:$+ kkkkkkkkkkkkk",
"kkkkkkkkkkkk :>><1>#######++:::$#+kkkkkkkkkkkkkk",
"kkkkkkkkkkkkk#:>>,,,,,>:::##+ $++ kkkkkkkkkkkkkk",
"kkkkkkkkkkkkk ::>,,111,>:::##+ ++kkkkkkkkkkkkkkk",
"kkkkkkkkkkkkkk#:,,,###,,>:::##+ kkkkkkkkkkkkkkkk",
"kkkkkkkkkkkkk ::,,17741:>:::::#+ kkkkkkkkkkkkkkk",
"kkkkkkkkkkkkk#:>:#+++++#::::>X:+ kkkkkkkkkkkkkkk",
"kkkkkkkkkkkk #:,#+tfX;t+::X::ph#+kkkkkkkkkkkkkkk",
"kkkkkkkkkkkk #::+#tdg-t#::uXXXpX+kkkkkkkkkkkkkkk",
"kkkkkkkkkkkk ::::##www##:X2si&X6Xk  +++### kkkkk",
"kkkkkkkkkkk #::>>:#####>XyoXX*&26+++##:::::#  kk",
"kkkkkkkkkkk #:>,,>:::::>8XOO%*&e6+##:::,,,,:##kk",
"kkkkkkkkkkk #:,,>>:::>>:eXoO**&3X:::,, kkkk   kk",
"kkkkkkkkkkk #:,,::++++::8XOO&=&eX::,  kkkkkkkkkk",
"kkkkkkkkkkkk #::+:,4,:##eXoX**XX:, kkkkkkkkkkkkk",
"kkkkkkkkkkkkk#::#+a.jq+#2r2sXX8X+kkkkkkkkkkkkkkk",
"kkkkkkkkkkkkk ::#+a09q+:Xp2heeXX kkkkkkkkkkkkkkk",
"kkkkkkkkkkk :, #:####::::#X5yuXkkkkkkkkkkkkkkkkk",
"kkkkkkkkkkk:,4# ::###:::##+ XX kkkkkkkkkkkkkkkkk",
"kkkkkkkkkk ,7,:######@##::##+kkkkkkkkkkkkkkkkkkk",
"kkkkkkkkk :4,: kkk ### #,,::+kkkkkkkkkkkkkkkkkkk",
"kkkkkkkkk:,1,#kkkkk    +:,,:#kkkkkkkkkkkkkkkkkkk",
"kkkkkkkkk:,,, kkkkkkkkkk+#,1: kkkkkkkkkkkkkkkkkk",
"kkkkkkkkk:,,:kkkkkkkkkkk +:1: kkkkkkkkkkkkkkkkkk",
"kkkkkkkkk:,,:kkkkkkkkkkkk :,# kkkkkkkkkkkkkkkkkk",
"kkkkkkkkk :,1 kkkkkkkkkkk :,#kkkkkkkkkkkkkkkkkkk",
"kkkkkkkkkk ,,:kkkkkkkkkk #,: kkkkkkkkkkkkkkkkkkk",
"kkkkkkkkkkk  :: kkkkkkkk:1::kkkkkkkkkkkkkkkkkkkk",
"kkkkkkkkkkkkk  kkkkkkkk 1,:#kkkkkkkkkkkkkkkkkkkk",
"kkkkkkkkkkkkkkkkkkkkkkk:,: kkkkkkkkkkkkkkkkkkkkk",
"kkkkkkkkkkkkkkkkkkkkkkk:,:kkkkkkkkkkkkkkkkkkkkkk",
"kkkkkkkkkkkkkkkkkkkkkkk:,:kkkkkkkkkkkkkkkkkkkkkk",
"kkkkkkkkkkkkkkkkkkkkkkk : kkkkkkkkkkkkkkkkkkkkkk",
"kkkkkkkkkkkkkkkkkkkkkkk : kkkkkkkkkkkkkkkkkkkkkk",
"kkkkkkkkkkkkkkkkkkkkkkkk: kkkkkkkkkkkkkkkkkkkkkk",
"kkkkkkkkkkkkkkkkkkkkkkkkkkkkkkkkkkkkkkkkkkkkkkkk"
};
