/* XPM */
static char *result[] = {
/* columns rows colors chars-per-pixel */
"48 48 41 1 ",
"  c black",
". c #1B0000",
"X c #360000",
"o c #1E2325",
"O c #242A2C",
"+ c #2A3033",
"@ c #2F373A",
"# c #430000",
"$ c #43000D",
"% c #51000D",
"& c #6B3636",
"* c #343C40",
"= c #353D41",
"- c #3B4348",
"; c #40494E",
": c #455056",
"> c #4A565C",
", c #515151",
"< c #556269",
"1 c gray42",
"2 c gray43",
"3 c #606F76",
"4 c #797979",
"5 c #7C7C7C",
"6 c #916666",
"7 c #976E6E",
"8 c #847874",
"9 c #8B7E71",
"0 c #868686",
"q c #898989",
"w c #9F9388",
"e c gray58",
"r c gray63",
"t c #A4A4A4",
"y c #AEAEAE",
"u c #B4AAA0",
"i c #BCBCBC",
"p c #C99494",
"a c #D7AEAE",
"s c #D7D7D7",
"d c None",
/* pixels */
"dddddddddddddddddddddddddddddddddddddddddddddddd",
"ddddddddddddddddddddddddddd   dddddddddddddddddd",
"ddddddddddddddddddddddddddddd*-- ddddddddddddddd",
"ddddddddddddddddddddddddddddd ;;* dddddddddddddd",
"dddddddddddddddddddddddddddddd +;- ddddddddddddd",
"ddddddddddddddddddddddddddddddd ;-*ddddddddddddd",
"ddddd      ddddddddddddddddddddd ** dddddddddddd",
"ddd ;::::;;;  dddddddddddddddddd +* dddddddddddd",
"dd ;:;;;;::::; ddddddddddddddddd +*+ ddddddddddd",
"d :-=++++*-;:>:* ddddddddddddddd **o ddddddddddd",
"d -*+    +**;:>;;ddddddddddddddd **o ddddddddddd",
" **+dddddd +*-::;; dddddddddddd *;@o ddddddddddd",
" *+ dddddddd+*-:3-* dddd  ddd +*<*+ dddddddddddd",
" * ddddddddd +*;:>;*dd  oo dd+*;*@o dddddddddddd",
" * ddddddddddd+--:>;****+++ooo;*+ooddddddddddddd",
" * ddddddddddd+--:>;---**++++ *@oo ddddddddddddd",
"dd* dddddddddd +*-;;;;;--***++o o dddddddddddddd",
"ddddddddddddddd+*;;>;;;>;-***++o ddddddddddddddd",
"ddddddddddddddd+*;>;+++;>-****++ ddddddddddddddd",
"dddddddddddddd+*-*+>33<>+****-*+o dddddddddddddd",
"dddddddddddddd+*;++ooooo;***-;**oodddddddddddddd",
"ddddddddddddd +**o+wpa&w+***-*.*+odd  ooo dddddd",
"ddddddddddddd ****++999++-*.**ys+o ooo+***o dddd",
"dddddddddddd +*****ooooo*-*r...y.oooo+*****odddd",
"dddddddddddd +*-;;-*****-*.,it$.2.o++**; ;** ddd",
"dddddddddddd +*;;;;------.4.e5$%,2o+*;; d ;**ddd",
"dddddddddddd +*;;**oooo**4.X.#%...+*;dddddd * dd",
"ddddddddddddd +**o*;<;*++,q,i..4.o+ dddddddd; dd",
"ddddddddddddd +**;*oooo++.y,s00..o+ddddddddd  dd",
"ddddddddddddd  **+ou768o*oo.1er.o+dddddddddddddd",
"dddddddddddd *++**+8uuo+*+oo ..o  dddddddddddddd",
"ddddddddddd ;>;+ **+++***++oooo dddddddddddddddd",
"dddddddddd ;3;;+ +++++O++**++odddddddddddddddddd",
"dddddddddd ;<;* d  +++ o+***+o ddddddddddddddddd",
"dddddddddd*;;; ddddd    o****+o dddddddddddddddd",
"dddddddddd*;;*dddddddddd ++***o dddddddddddddddd",
"dddddddddd*;;*dd  dddddddd *;*+odddddddddddddddd",
"dddddddddd *>> ;*dddddddddd+*;+odddddddddddddddd",
"ddddddddddd ;;>;*dddddddddd+**oodddddddddddddddd",
"dddddddddddd    ddddddddd  *;+o dddddddddddddddd",
"dddddddddddddddddddddddd o+;;+o dddddddddddddddd",
"dddddddddddddddddddd >>;;;;++ dddddddddddddddddd",
"ddddddddddddddddddd<;*++o   dddddddddddddddddddd",
"dddddddddddddddddd >+    ddddddddddddddddddddddd",
"ddddddddddddddddd >+dddddddddddddddddddddddddddd",
"ddddddddddddddddd > dddddddddddddddddddddddddddd",
"dddddddddddddddddd ;dddddddddddddddddddddddddddd",
"ddddddddddddddddddd  ddddddddddddddddddddddddddd"
};
