/* XPM */
static char *result[] = {
/* columns rows colors chars-per-pixel */
"48 48 45 1 ",
"  c black",
". c #160000",
"X c #1B0000",
"o c #290000",
"O c #360000",
"+ c #1E2325",
"@ c #2A3033",
"# c #2F373A",
"$ c #430000",
"% c #43000D",
"& c #51000D",
"* c #510D0D",
"= c #510D1B",
"- c #5E2828",
"; c #5E3636",
": c #6B3636",
"> c #743E3E",
", c #343C40",
"< c #3B4348",
"1 c #40494E",
"2 c #455056",
"3 c #4A565C",
"4 c #515151",
"5 c #556269",
"6 c gray42",
"7 c gray43",
"8 c #606F76",
"9 c #797979",
"0 c #847874",
"q c #8B7E71",
"w c #868686",
"e c #898989",
"r c #9F9388",
"t c gray58",
"y c #A19494",
"u c gray63",
"i c #A4A4A4",
"p c #AEAEAE",
"a c #B4AAA0",
"s c #BCBCBC",
"d c #C9AEAE",
"f c #D7AEAE",
"g c #D7D7D7",
"h c #EAE7E7",
"j c None",
/* pixels */
"jjjjjjjjjjjjjjjjjjjjjjjjjjjjjjjjjjjjjjjjjjjjjjjj",
"jjjjjjjjjjjjjjjjjjjjjjjjjjjjjjjjjjjjjjjjjjjjjjjj",
"jjjjjjjjjjjjjjjjjjjjjjjjjjjjj ,,## jjjjjjjjjjjjj",
"jjjjjjjjjjjjjjjjjjjjjjjjjjjj ,11,,#jjjjjjjjjjjjj",
"jjjjjj     jjjjjjjjjjjjjjjjj  j ,1,# jjjjjjjjjjj",
"jjjjj 12233 jjjjjjjjjjjjjjjjjjjj ,1# jjjjjjjjjjj",
"jjjj,,,<<1232<jjjjjjjjjjjjjjjjjjj ,,#jjjjjjjjjjj",
"jj ,,@@@@,<133<jjjjjjjjjjjjjjjjjjj@,# jjjjjjjjjj",
"jj,,,    @,<231 jjjjjjjjjjjjjjjjjj@,# jjjjjjjjjj",
"j ,, jjjjj@,<131,jjjjjjjjjjjjjjjj ,#@ jjjjjjjjjj",
"j ,@jjjjjj @,<221 jjjjjjjjjjjjjj @,@+ jjjjjjjjjj",
"j @ jjjjjjjj@,182<,jjjjjjjjjjjj ,1#++jjjjjjjjjjj",
"j @ jjjjjjjj @,1231@ j  ++ jj @,5,@+ jjjjjjjjjjj",
"j  jjjjjjjjjj ,<181,@ @@@@+  @,1,#++ jjjjjjjjjjj",
"jjjjjjjjjjjjjj@<<231<<<,,@@@@ 1,@++jjjjjjjjjjjjj",
"jjjjjjjjjjjjjj@,<<11111<,,,@@+ #++ jjjjjjjjjjjjj",
"jjjjjjjjjjjjjj @,<1311131,,,,@+++ jjjjjjjjjjjjjj",
"jjjjjjjjjjjjjj @,13@553@3<,,,,@@ jjjjjjjjjjjjjjj",
"jjjjjjjjjjjjjj ,,1138853,<,,,,@@+ jjjjjjjjjjjjjj",
"jjjjjjjjjjjjjj@,1@@qfy-q1,,,<1,,++jjjjjjjjjjjjjj",
"jjjjjjjjjjjjj @,1@+rdX>r+,,<1<X,@+jjjjjjjjjjjjjj",
"jjjjjjjjjjjjj @,,@+q;:rq+,<X,,pg@+jj  +++ jjjjjj",
"jjjjjjjjjjjj @,,,,,+++++,<,psgXXiX+++@@,,@++jjjj",
"jjjjjjjjjjjj @,,<<,@@@@@<,X4si%X7X+@@,,,,,@@ jjj",
"jjjjjjjjjjjj @,1111<<<<<<XtoXX&*47@,,,,1111,, jj",
"jjjjjjjjjjjj @,11<<,,,<<,9XOO$&=wX,,,11    1,@ j",
"jjjjjjjjjjjj @,<<@+@@@@+,wXoX&&XX+,1 jjjjjjj 11j",
"jjjjjjjjjjjjj @,,1,++++@@4e4sXX9X, jjjjjjjjjjjjj",
"jjjjjjjjjjjjjj@,,@+a.h0+@Xp4gwwXX1jjjjjjjjjjjjjj",
"jjjjjjjjjjjjj @@,,@0aa+@@@+X6tuX jjjjjjjjjjjjjjj",
"jjjjjjjjjjjj ,, @,@+++,,@@@+ XX+jjjjjjjjjjjjjjjj",
"jjjjjjjjjjj 135,@@,@@@@@@,@@++ jjjjjjjjjjjjjjjjj",
"jjjjjjjjjj ,581@   @@@ +,,1@@ jjjjjjjjjjjjjjjjjj",
"jjjjjjjjjj 158, jjj @@@ @11,@+jjjjjjjjjjjjjjjjjj",
"jjjjjjjjjj,181 jjjjjjjjj ,111@ jjjjjjjjjjjjjjjjj",
"jjjjjjjjjj,181 jjjjjjjjjj+,11@ jjjjjjjjjjjjjjjjj",
"jjjjjjjjjj,151jjjjjjjjjjj @13,+ jjjjjjjjjjjjjjjj",
"jjjjjjjjjj ,331  , jjjjjj @13,+ jjjjjjjjjjjjjjjj",
"jjjjjjjjjjj 11311 jjjjjjj@,31@ jjjjjjjjjjjjjjjjj",
"jjjjjjjjjjjj  ,  jjjjjjj 11,@+jjjjjjjjjjjjjjjjjj",
"jjjjjjjjjjjjjj jjjjjjjj ,11@+ jjjjjjjjjjjjjjjjjj",
"jjjjjjjjjjjjjjjjjjjjjj531,@+ jjjjjjjjjjjjjjjjjjj",
"jjjjjjjjjjjjjjjjjjjjj 11@  jjjjjjjjjjjjjjjjjjjjj",
"jjjjjjjjjjjjjjjjjjjj 31, jjjjjjjjjjjjjjjjjjjjjjj",
"jjjjjjjjjjjjjjjjjjjj 3, jjjjjjjjjjjjjjjjjjjjjjjj",
"jjjjjjjjjjjjjjjjjjjj 1 jjjjjjjjjjjjjjjjjjjjjjjjj",
"jjjjjjjjjjjjjjjjjjjjj  jjjjjjjjjjjjjjjjjjjjjjjjj",
"jjjjjjjjjjjjjjjjjjjjjjjjjjjjjjjjjjjjjjjjjjjjjjjj"
};
