/* XPM */
static char *_33a7a8dadd84350d349ff34899ccd37zM9mJk4CKRuPdSus[] = {
/* columns rows colors chars-per-pixel */
"48 48 14 1 ",
"  c None",
". c #2F2F2E",
"X c #3B3B39",
"o c #5E182C",
"O c #741A33",
"+ c #69483A",
"@ c #484846",
"# c #9E293B",
"$ c #D2735D",
"% c #DA8335",
"& c #DAA935",
"* c #EC8C76",
"= c #9299A4",
"- c #F1F0FD",
/* pixels */
"                                                ",
"                                                ",
"                                                ",
"                                                ",
"                                                ",
"                                                ",
"                         .......                ",
"              ......     .XXXXX@...             ",
"              .XXXX@..    ...XXXXX@..           ",
"               ...XXX@...    .XXXXXX@.          ",
"                  .XXXXX@.......XXXXX@.         ",
"                  .XXXXXXX@@@OOOOOoXXX@.        ",
"                   ..XXXXXXXX@O##OO##OX@.       ",
"                   ...oOXXXXXXX@######O@.       ",
"                   .XXXOOOOOOXXX@##O###O.       ",
"                   .oOOO##O#O##OX###O#O##.      ",
"                  .XXOO#####O#######O##O#.      ",
"                  .OOOOO#######O##OO&&&&OO.     ",
"                  .OOO##########OOO&&&+&&O.     ",
"                  .OO#######OO&&OOO%&&+&%O&.    ",
"                  .OOOO####OO%%+%OO%%%+%%O%.    ",
"                 .oOO#######OO%%OOOO%%%%OOO.    ",
"                 .oOOO########OOO###OOOO####.   ",
"               ..XXXXoOOO######OOOO#######OO..  ",
"              .XXXXXXXXX######O$***OOOOOOO$*#.. ",
"             .XXXXXXXXX@OOOOOO$*+++$*****$+=#.@.",
"  .....    ..XXXXXXXXX@.o$$$$$*+=+-.-.-.=+.-..@.",
"  .XXXX....XXXXXXXXXX@.O#$.$.$-.-.-.....-.$.... ",
".. .XXXXXXXXXXXXXXX@@.OOO#$*.*..-.........$.    ",
".O.....XXXXXXXXXX@@..OOOO#$*.*...oooo.o..-$.    ",
".OX@.X@...@@@@@@@..OOOOOOO#$.*.ooooooo.o.=..    ",
".OoXXX@............OOOOOOO#$.*..oooooooo..-.    ",
".oOOoXXXoOOOOOOOoo.OOOOOOOO#$*.-..oo..oo..-.    ",
" .oOOOOOOOOOOOOo.. .OoOOOOO#$$+-.-..-...-+*#.   ",
"  .oOOOOOOOOOo..   .O.OOOOOO#$$=+=++-..-=+$#.   ",
"   ..oOOOOOo..      ..OOOOOOO##$**$+==++$*#.    ",
"     .......         .OOoOOOOOO####$***$##.     ",
"                      .O.OOOoOOOOOO#####O.      ",
"                       ..OOO.OOOO.XOOOO@.       ",
"                         ..O.OOOO.X@@@@.        ",
"                           ..OOOO.X@@@.         ",
"                             ......@@@.         ",
"                                  .X@.          ",
"                                   .X.          ",
"                                    ..          ",
"                                                ",
"                                                ",
"                                                "
};
