/* XPM */
static char *result[] = {
/* columns rows colors chars-per-pixel */
"48 48 14 1 ",
"  c #2F2F2E",
". c #3B3B39",
"X c #5E182C",
"o c #741A33",
"O c #69483A",
"+ c #484846",
"@ c #9E293B",
"# c #D2735D",
"$ c #DA8335",
"% c #DAA935",
"& c #EC8C76",
"* c #9299A4",
"= c #F1F0FD",
"- c None",
/* pixels */
"------------------------------------------------",
"------------------------------------------------",
"------------------------------------------------",
"------------------------------------------------",
"---------------       -----------------   ------",
"------------   +..... -----       ---- +. ------",
"----------  +.....   ----  +.... +    +.. ------",
"--------- +...... ----   +...   +........ ------",
"-------- +.....       +..... -- ..XoooX.. ------",
"------- +...Xooooo+++....... -- .XooooooX. -----",
"------ +.o@@oo@@o+........      .oooooooo. -----",
"------ +o@@@@@@+.......oX    +..XooooooooX. ----",
"------ o@@@o@@+...oooooo... - ..oooooX Xoo. ----",
"----- @@o@o@@@.o@@o@o@@oooX - .Xooooo - oo. ----",
"----- @o@@o@@@@@@@o@@@@@oo.. +Xooooo -- oo. ----",
"---- oo%%%%oo@@o@@@@@@@ooooo XoooooX -- oo. ----",
"---- o%%O%%%ooo@@@@@@@@@@ooo oooooo --- oo. ----",
"--- %o$%O%%$ooo%%oo@@@@@@@ooX ooooX --- oo. ----",
"--- $o$$O$$$oo$O$$oo@@@@ooooo oooo ---- oo -----",
"--- ooo$$$$oooo$$oo@@@@@@@ooo ooo ----- oX -----",
"-- @@@@oooo@@@ooo@@@@@@@@ooooX X ------ X ------",
"-  oo@@@@@@@oooo@@@@@@oooX....   ------ X ------",
"  @&#ooooooo&&&#o@@@@@@......... ------ X ------",
"+ @*O#&&&&&#OOO&#oooooo+......... -----  -------",
"+  = O* = = =O*O&#####X +.........  ----     ---",
"    # =     = = =# # #@o +..........    .... ---",
"--- #         =  & &#@ooo ++............... ----",
"--- #=           & &#@oooo  ++..........   -----",
"---  *  X XXXX   & #@ooooooo  +++++++   --------",
"--- =  X XXXXXX  & #@ooooooo         -----------",
"--- =  XX  XX  = &#@oooooooo -------------------",
"-- @&O=   =  = =O##@oooooXo --------------------",
"-- @#O*=  =OO*O*##@oooooo o --------------------",
"--- @&#OO**O#&&#@@ooooooo  ---------------------",
"---- @@#&&&#@@@@ooooooXoo ----------------------",
"----- o@@@@@ooooooXooo o -----------------------",
"------ +oooo. oooo ooo  ------------------------",
"------- ++++. oooo o  --------------------------",
"-------- +++. oooo  ----------------------------",
"-------- +++      ------------------------------",
"--------- +. -----------------------------------",
"--------- . ------------------------------------",
"---------  -------------------------------------",
"------------------------------------------------",
"------------------------------------------------",
"------------------------------------------------",
"------------------------------------------------",
"------------------------------------------------"
};
