/* XPM */
static char *f0c1246016c44a9dafbaa48e85792c791qLgIR0I0uFhjXId[] = {
/* columns rows colors chars-per-pixel */
"48 48 14 1 ",
"  c None",
". c #2F2F2E",
"X c #3B3B39",
"o c #5E182C",
"O c #741A33",
"+ c #69483A",
"@ c #484846",
"# c #9E293B",
"$ c #D2735D",
"% c #DA8335",
"& c #DAA935",
"* c #EC8C76",
"= c #9299A4",
"- c #F1F0FD",
/* pixels */
"                                                ",
"                                                ",
"                                                ",
"                                                ",
"                                                ",
"      ..                 .......                ",
"      .@.     ......     .XXXXX@...             ",
"    ...X@.    .XXXX@..    ...XXXXX@..           ",
"   .XXXX@.     ...XXX@...    .XXXXXX@.          ",
"  .XXoOoX@.       .XXXXX@.......XXXXX@.         ",
" .XXoOOOoX. ..    .XXXXXXX@@@OOOOOoXXX@.        ",
" .XoOOOOOX@.@.     ..XXXXXXXX@O##OO##OX@.       ",
" .oO..OOOoXX@.     ...oOXXXXXXX@######O@.       ",
".OO. .oOOOXX.      .XXXOOOOOOXXX@##O###O.       ",
".OO.  .OOOXX.      .oOOO##O#O##OX###O#O##.      ",
".OO.  .OOOXX. ..  .XXOO#####O#######O##O#.      ",
".OO.  .OOOoX..@.  .OOOOO#######O##OO&&&&OO.     ",
".oO.  .oOOOXXX@.  .OOO##########OOO&&&&+&O.     ",
" .OO.  .OOOoXXX...oOO#######OO&&OOO%&&&+%O&.    ",
" .oO.  .OOOOoXXXX.OOOOO####OO%%+%OO%%%%+%O%.    ",
"  .oO. .OOOOOOOOO.OOO#######OO%%OOOO%%%%OOO.    ",
"   ... .OOOOOOOO.oOOOO########OOO###OOOO####.   ",
"       .oOOOOOO..XXXXoOOO######OOOO#######OO..  ",
"        .OOOOO.XXXXXXXXX######O$***OOOOOOO$*#.. ",
"        .OOOO.XXXXXXXXX@OOOOOO$*+++$*****$+=#.@.",
"  .....  ....XXXXXXXXX@.o$$$$$*+=+-.-.-.=+.-..@.",
"  .XXXX....XXXXXXXXXX@.O#$.$.$-.-.-.....-.$.... ",
"   .XXXXXXXXXXXXXXX@@.OOO#$*.*..-.........$.    ",
"    ...XXXXXXXXXX@@..OOOO#$*.*...oooo.o..-$.    ",
"       ...@@@@@@@..OOOOOOO#$.*.ooooooo.o.=..    ",
"          .........OOOOOOO#$.*..oooooooo..-.    ",
"                  .OOOOOOOO#$*.-..oo..oo..-.    ",
"                   .OoOOOOO#$$+-.-..-...-+*#.   ",
"                   .O.OOOOOO#$$=+=++-..-=+$#.   ",
"                    ..OOOOOOO##$**$+==++$*#.    ",
"                     .OOoOOOOOO####$***$##.     ",
"                      .O.OOOoOOOOOO#####O.      ",
"                       ..OOO.OOOO.XOOOO@.       ",
"                         ..O.OOOO.X@@@@.        ",
"                           ..OOOO.X@@@.         ",
"                             ......@@@.         ",
"                                  .X@.          ",
"                                   .X.          ",
"                                    ..          ",
"                                                ",
"                                                ",
"                                                ",
"                                                "
};
