/* XPM */
static char *_949bd59fc794889ef371faebd23cbc691GaZleHRlHGIJAf[] = {
/* columns rows colors chars-per-pixel */
"48 48 14 1 ",
"  c None",
". c #2F2F2E",
"X c #3B3B39",
"o c #5E182C",
"O c #741A33",
"+ c #69483A",
"@ c #484846",
"# c #9E293B",
"$ c #D2735D",
"% c #DA8335",
"& c #DAA935",
"* c #EC8C76",
"= c #9299A4",
"- c #F1F0FD",
/* pixels */
"                                                ",
"                                                ",
"                                                ",
"                                                ",
"                                                ",
"                                                ",
"                                                ",
"               .......                          ",
"            ...@XXXXX.     ......               ",
"          ..@XXXXX...    ..@XXXX.               ",
"         .@XXXXXX.    ...@XXX...                ",
"        .@XXXXX.......@XXXXX.                   ",
"       .@XXXoOOOOO@@@XXXXXXX.                   ",
"      .@XO##OO##O@XXXXXXXX..                    ",
"      .@O######@XXXXXXXOo...                    ",
"      .O###O##@XXXOOOOOOXXX.                    ",
"     .##O#O###XO##O#O##OOOo.               ..   ",
"     .#O##O#######O#####OOXX.             .O.   ",
"    .OO&&&&OO##O#######OOOOO.            .XO.   ",
"    .O&+&&&&OOO##########OOO.            .XO.   ",
"   .&O%+&&&%OOO&&OO#######OOo.        ...XoO.   ",
"   .%O%+%%%%OO%+%%OO####OOOOO.        .@XXOO.   ",
"   .OOO%%%%OOOO%%OO#######OOO.         .@XOo.   ",
"  .####OOOO###OOO########OOOOo.       .@XoO.    ",
" ..OO#######OOOO######OOOoXXXX.. ..  .@XoOO.    ",
"..#*$OOOOOOO***$O######XXXXXXXXX.@X..@XoOOo.    ",
"@.#=+$*****$+++*$OOOOOO@XXXXXXXXX.XXXoOOOO.     ",
"@..-.+=.-.-.-+=+*$$$$$o.@XXXXXXXXX..oOOO.....   ",
"....$.-.....-.-.-$.*$#OO.@XXXXXXXXXX....XXXX.   ",
"   ...........-..*.$#OOOO.@@XXXXXXXXXXXXXXX.    ",
"   .--..o.oooo...*.$#OOOOO..@@XXXXXXXXXX...     ",
"   .-..o...oo..-.*$#OOOOOOOO..@@@@@@@...        ",
"  .#*+-...-..-.-+$$#OOOOOoO. ........           ",
"  .#$+=-..-++=+=$$#OOOOOO.O.                    ",
"   .#*$++==+$**$##OOOOOOO..                     ",
"    .##$***$####OOOOOOoOO.                      ",
"     .O#####OOOOOOoOOO.O.                       ",
"      .@OOOOX.OOOO.OOO..                        ",
"       .@@@@X.OOOO.O..                          ",
"        .@@@X.OOOO..                            ",
"        .@@@......                              ",
"         .@X.                                   ",
"         .X.                                    ",
"         ..                                     ",
"                                                ",
"                                                ",
"                                                ",
"                                                "
};
