/* XPM */
static char *_a7ff801c73a41aebdd7c21fe5a71031dd1AE44hlrwtAbmj[] = {
/* columns rows colors chars-per-pixel */
"48 48 14 1 ",
"  c None",
". c #2F2F2E",
"X c #3B3B39",
"o c #5E182C",
"O c #741A33",
"+ c #69483A",
"@ c #484846",
"# c #9E293B",
"$ c #D2735D",
"% c #DA8335",
"& c #DAA935",
"* c #EC8C76",
"= c #9299A4",
"- c #F1F0FD",
/* pixels */
"                                                ",
"                                                ",
"                                                ",
"                                                ",
"     ...                 .......                ",
"     .X@.    .......     .XXXXX@...             ",
"     .XX@....@.XXXX@..    ...XXXXX@..           ",
"     .XXXXXXXX@...XXX@...    .XXXXXX@.          ",
"     .XXoOOOoXX.  .XXXXX@.......XXXXX@.         ",
"    .XoOOOOOOoX.  .XXXXXXX@@@OOOOOoXXX@.        ",
"    .XOOOOOOOOX......XXXXXXXX@O##OO##OX@.       ",
"   .XoOOOOOOOOoXX@....oOXXXXXXX@######O@.       ",
"   .XOOo.oOOOOOXX. .XXXOOOOOOXXX@##O###O.       ",
"   .XOO. .OOOOOoX. .oOOO##O#O##OX###O#O##.      ",
"   .XOO.  .OOOOOo@.XXOO#####O#######O##O#.      ",
"   .XOO.  .oOOOOOo.OOOOO#######O##OO&&&&OO.     ",
"   .XOO.   .OOOOOO.OOO##########OOO&&&+&&O.     ",
"   .XOO.   .oOOOO.oOO#######OO&&OOO%&&+&%O&.    ",
"    .OO.    .OOOO.OOOOO####OO%%+%OO%%%+%%O%.    ",
"    .oO.     .OOO.OOO#######OO%%OOOO%%%%OOO.    ",
"     .o.      .o.oOOOO########OOO###OOOO####.   ",
"     .o.      ...XXXXoOOO######OOOO#######OO..  ",
"     .o.      .XXXXXXXXX######O$***OOOOOOO$*#.. ",
"      ..     .XXXXXXXXX@OOOOOO$*+++$*****$+=#.@.",
"  .....    ..XXXXXXXXX@.o$$$$$*+=+-.-.-.=+.-..@.",
"  .XXXX....XXXXXXXXXX@.O#$.$.$-.-.-.....-.$.... ",
"   .XXXXXXXXXXXXXXX@@.OOO#$*.*..-.........$.    ",
"    ...XXXXXXXXXX@@..OOOO#$*.*...........-$.    ",
"       ...@@@@@@@..OOOOOOO#$.*...oooo.o..=..    ",
"          .........OOOOOOO#$.*..oooooo.o..-.    ",
"                  .OOOOOOOO#$*.-..oo..oo..-.    ",
"                   .OoOOOOO#$$+-.-..-...-+*#.   ",
"                   .O.OOOOOO#$$=+=++-..-=+$#.   ",
"                    ..OOOOOOO##$**$+==++$*#.    ",
"                     .OOoOOOOOO####$***$##.     ",
"                      .O.OOOoOOOOOO#####O.      ",
"                       ..OOO.OOOO.XOOOO@.       ",
"                         ..O.OOOO.X@@@@.        ",
"                           ..OOOO.X@@@.         ",
"                             ......@@@.         ",
"                                  .X@.          ",
"                                   .X.          ",
"                                    ..          ",
"                                                ",
"                                                ",
"                                                ",
"                                                ",
"                                                "
};
