/* XPM */
static char *_edeeaf3931843a3b0563c7cddf0a8dcIf5xxpNeSEIfzUou[] = {
/* columns rows colors chars-per-pixel */
"48 48 14 1 ",
"  c None",
". c #2F2F2E",
"X c #3B3B39",
"o c #5E182C",
"O c #741A33",
"+ c #69483A",
"@ c #484846",
"# c #9E293B",
"$ c #D2735D",
"% c #DA8335",
"& c #DAA935",
"* c #EC8C76",
"= c #9299A4",
"- c #F1F0FD",
/* pixels */
"                                                ",
"                                                ",
"                                                ",
"                                                ",
"                                                ",
"                                                ",
"                                                ",
"                         .......                ",
"              ......     .XXXXX@...             ",
"              .XXXX@..    ...XXXXX@..           ",
"               ...XXX@...    .XXXXXX@.          ",
"                  .XXXXX@.......XXXXX@.         ",
"                  .XXXXXXX@@@OOOOOoXXX@.        ",
"                   ..XXXXXXXX@O##OO##OX@.       ",
"                   ...oOXXXXXXX@######O@.       ",
"                   .XXXOOOOOOXXX@##O###O.       ",
"  ..               .oOOO##O#O##OX###O#O##.      ",
"  .O.             .XXOO#####O#######O##O#.      ",
"  .OX.            .OOOOO#######O##OO&&&&OO.     ",
"  .OX.            .OOO##########OOO&&&&+&O.     ",
"  .OoX...        .oOO#######OO&&OOO%&&&+%O&.    ",
"  .OOXX@.        .OOOOO####OO%%+%OO%%%%+%O%.    ",
"  .oOX@.         .OOO#######OO%%OOOO%%%%OOO.    ",
"   .OoX@.       .oOOOO########OOO###OOOO####.   ",
"   .OOoX@.  .. ..XXXXoOOO######OOOO#######OO..  ",
"   .oOOoX@..X@.XXXXXXXXX######O$***OOOOOOO$*#.. ",
"    .OOOOoXXX.XXXXXXXXX@OOOOOO$*+++$*****$+=#.@.",
"  .....OOOo..XXXXXXXXX@.o$$$$$*+=+-.-.-.=+.-..@.",
"  .XXXX....XXXXXXXXXX@.OO#$*.$-.-.-.....-.$.... ",
"   .XXXXXXXXXXXXXXX@@.OOOO#$.*..-...........    ",
"    ...XXXXXXXXXX@@..OOOOO#$.*...oooo.o..--.    ",
"       ...@@@@@@@..OOOOOOOO#$*.-..oo...o..-.    ",
"          ........ .OoOOOOO#$$+-.-..-...-+*#.   ",
"                   .O.OOOOOO#$$=+=++-..-=+$#.   ",
"                    ..OOOOOOO##$**$+==++$*#.    ",
"                     .OOoOOOOOO####$***$##.     ",
"                      .O.OOOoOOOOOO#####O.      ",
"                       ..OOO.OOOO.XOOOO@.       ",
"                         ..O.OOOO.X@@@@.        ",
"                           ..OOOO.X@@@.         ",
"                             ......@@@.         ",
"                                  .X@.          ",
"                                   .X.          ",
"                                    ..          ",
"                                                ",
"                                                ",
"                                                ",
"                                                "
};
