/* XPM */
static char *f70f228445e2488ed097f6d2979c9c7cXQ4IulVPmpuCtzf8[] = {
/* columns rows colors chars-per-pixel */
"48 48 14 1 ",
"  c None",
". c #2F2F2E",
"X c #3B3B39",
"o c #5E182C",
"O c #741A33",
"+ c #69483A",
"@ c #484846",
"# c #9E293B",
"$ c #D2735D",
"% c #DA8335",
"& c #DAA935",
"* c #EC8C76",
"= c #9299A4",
"- c #F1F0FD",
/* pixels */
"                                                ",
"                                                ",
"                                                ",
"                                                ",
"                                                ",
"                                                ",
"                         .......                ",
"   ...        ......     .XXXXX@...             ",
"...XX@.       .XXXX@..    ...XXXXX@..           ",
".OOOoX@....    ...XXX@...    .XXXXXX@.          ",
" ..oOoXXX@.       .XXXXX@.......XXXXX@.         ",
"   .OOoX@.        .XXXXXXX@@@OOOOOoXXX@.        ",
"   .oOOX@.         ..XXXXXXXX@O##OO##OX@.       ",
"    .OOX@...       ...oOXXXXXXX@######O@.       ",
"    .OOX@X@.       .XXXOOOOOOXXX@##O###O.       ",
"    .OOXX@.        .oOOO##O#O##OX###O#O##.      ",
"    .OOXX@.       .XXOO#####O#######O##O#.      ",
"    .OOoX@. ...   .OOOOO#######O##OO&&&&OO.     ",
"    .OOOoX..X@.   .OOO##########OOO&&&&+&O.     ",
"    .OOOOoXXX@.....OO#######OO&&OOO%&&&+%O&.    ",
"    .OOOOOOoXXXXX.oOOOO####OO%%+%OO%%%%+%O%.    ",
"    .oOOOOOOOOOOO.OOO#######OO%%OOOO%%%%OOO.    ",
"     .oOOOOOOOOO.oOOOO########OOO###OOOO####.   ",
"      .oOOOOOOO..XXXXoOOO######OOOO#######OO..  ",
"       .oOOOOO.XXXXXXXXX######O$***OOOOOOO$*#.. ",
"        ..oOO.XXXXXXXXX@OOOOOO$*+++$*****$+=#.@.",
"  .....   ...XXXXXXXXX@.o$$$$$*+=+-.-.-.=+.-..@.",
"  .XXXX....XXXXXXXXXX@.O#$.$.$-.-.-.....-.$.... ",
"   .XXXXXXXXXXXXXXX@@.OOO#$*.*..-.........$.    ",
"    ...XXXXXXXXXX@@..OOOOO#$.*...oooo.o..-..    ",
"       ...@@@@@@@..OOOOOOO#$.*..oooooo.o.=-.    ",
"          .........OOOOOOOO#$*.-..oo..oo..-.    ",
"                   .OoOOOOO#$$+-.-..-...-+*#.   ",
"                   .O.OOOOOO#$$=+=++-..-=+$#.   ",
"                    ..OOOOOOO##$**$+==++$*#.    ",
"                     .OOoOOOOOO####$***$##.     ",
"                      .O.OOOoOOOOOO#####O.      ",
"                       ..OOO.OOOO.XOOOO@.       ",
"                         ..O.OOOO.X@@@@.        ",
"                           ..OOOO.X@@@.         ",
"                             ......@@@.         ",
"                                  .X@.          ",
"                                   .X.          ",
"                                    ..          ",
"                                                ",
"                                                ",
"                                                ",
"                                                "
};
