/* XPM */
static char *f1df16c7f9df4187e60fefea49ee162bF9R0uTXWfI5DAL0C[] = {
/* columns rows colors chars-per-pixel */
"48 48 14 1 ",
"  c None",
". c #2F2F2E",
"X c #3B3B39",
"o c #5E182C",
"O c #741A33",
"+ c #69483A",
"@ c #484846",
"# c #9E293B",
"$ c #D2735D",
"% c #DA8335",
"& c #DAA935",
"* c #EC8C76",
"= c #9299A4",
"- c #F1F0FD",
/* pixels */
"                                                ",
"                                                ",
"                                                ",
"                                                ",
"                                                ",
"               .......                 ..       ",
"            ...@XXXXX.     ......     .@.       ",
"          ..@XXXXX...    ..@XXXX.    .@X...     ",
"         .@XXXXXX.    ...@XXX...     .@XXXX.    ",
"        .@XXXXX.......@XXXXX.       .@XoOoXX.   ",
"       .@XXXoOOOOO@@@XXXXXXX.    .. .XoOOOoXX.  ",
"      .@XO##OO##O@XXXXXXXX..     .@.@XOOOOOoX.  ",
"      .@O######@XXXXXXXOo...     .@XXoOOO..Oo.  ",
"      .O###O##@XXXOOOOOOXXX.      .XXOOOo. .OO. ",
"     .##O#O###XO##O#O##OOOo.      .XXOOO.  .OO. ",
"     .#O##O#######O#####OOXX.  .. .XXOOO.  .OO. ",
"    .OO&&&&OO##O#######OOOOO.  .@..XoOOO.  .OO. ",
"    .O&+&&&&OOO##########OOO.  .@XXXOOOo.  .Oo. ",
"   .&O%+&&&%OOO&&OO#######OOo...XXXoOOO.  .OO.  ",
"   .%O%+%%%%OO%+%%OO####OOOOO.XXXXoOOOO.  .Oo.  ",
"   .OOO%%%%OOOO%%OO#######OOO.OOOOOOOOO. .Oo.   ",
"  .####OOOO###OOO########OOOOo.OOOOOOOO. ...    ",
" ..OO#######OOOO######OOOoXXXX..OOOOOOo.        ",
"..#*$OOOOOOO***$O######XXXXXXXXX.OOOOO.         ",
"@.#=+$*****$+++*$OOOOOO@XXXXXXXXX.OOOO.         ",
"@..-.+=.-.-.-+=+*$$$$$o.@XXXXXXXXX....  .....   ",
"....$.-.....-.-.-$.$.$#O.@XXXXXXXXXX....XXXX.   ",
"   .$.........-..*.*$#OOO.@@XXXXXXXXXXXXXXX.    ",
"   .$-..o.oooo...*.*$#OOOO..@@XXXXXXXXXX...     ",
"   ..=.o.ooooooo.*.$#OOOOOOO..@@@@@@@...        ",
"   .-..oooooooo..*.$#OOOOOOO.........           ",
"   .-..oo..oo..-.*$#OOOOOOOO.                   ",
"  .#*+-...-..-.-+$$#OOOOOoO.                    ",
"  .#$+=-..-++=+=$$#OOOOOO.O.                    ",
"   .#*$++==+$**$##OOOOOOO..                     ",
"    .##$***$####OOOOOOoOO.                      ",
"     .O#####OOOOOOoOOO.O.                       ",
"      .@OOOOX.OOOO.OOO..                        ",
"       .@@@@X.OOOO.O..                          ",
"        .@@@X.OOOO..                            ",
"        .@@@......                              ",
"         .@X.                                   ",
"         .X.                                    ",
"         ..                                     ",
"                                                ",
"                                                ",
"                                                ",
"                                                "
};
