/* XPM */
static char *_84318d09e3d49a5e6f62b2de582ec3d4EzzXmmkA4EuMxci[] = {
/* columns rows colors chars-per-pixel */
"48 48 14 1 ",
"  c None",
". c #2F2F2E",
"X c #3B3B39",
"o c #5E182C",
"O c #741A33",
"+ c #69483A",
"@ c #484846",
"# c #9E293B",
"$ c #D2735D",
"% c #DA8335",
"& c #DAA935",
"* c #EC8C76",
"= c #9299A4",
"- c #F1F0FD",
/* pixels */
"                                                ",
"                                                ",
"                                                ",
"                                                ",
"                                                ",
"                         .......                ",
"              ......     .XXXXX@...             ",
"              .XXXX@..    ...XXXXX@..           ",
"               ...XXX@...    .XXXXXX@.          ",
"                  .XXXXX@.......XXXXX@.         ",
"                  .XXXXXXX@@@OOOOOoXXX@.        ",
"                   ..XXXXXXXX@O##OO##OX@.       ",
"                   ...oOXXXXXXX@######O@.       ",
"                   .XXXOOOOOOXXX@##O###O.       ",
"                   .oOOO##O#O##OX###O#O##.      ",
"                  .XXOO#####O#######O##O#.      ",
"                  .OOOOO#######O##OO&&&&OO.     ",
"                  .OOO##########OOO&&&+&&O.     ",
"          ...   ...OO#######OO&&OOO%&&+&%O&.    ",
"          .X@...X.oOOOO####OO%%+%OO%%%+%%O%.    ",
"          .X@XXXo.OOO#######OO%%OOOO%%%%OOO.    ",
"          .XXoOO.oOOOO########OOO###OOOO####.   ",
"         .XoOOO..XXXXoOOO######OOOO#######OO..  ",
"        .XoOOO.XXXXXXXXX######O$***OOOOOOO$*#.. ",
"       .XoOOO.XXXXXXXXX@OOOOOO$*+++$*****$+=#.@.",
"  ......oOO..XXXXXXXXX@.o$$$$$*+=+-.-.-.=+.-..@.",
"  .XXXX....XXXXXXXXXX@.O#$.$.$-.-.-.....-.$.... ",
"   .XXXXXXXXXXXXXXX@@.OO#$.$.*..-.........$.    ",
"    ...XXXXXXXXXX@@..OOOO#$*.*...........-$.    ",
"  ..@XO...@@@@@@@..OOOOOO#$*.*...oooo.o..=$.    ",
"..XXXOOOOO.........OOOOOOO#$.*.ooooooo.o....    ",
"oOOOOOOo..        .OOOOOOO#$.*..oooooooo..-.    ",
"..ooo...          .OOOOOOOO#$*.-..oo..oo..-.    ",
"  ...              .OoOOOOO#$$+-.-..-...-+*#.   ",
"                   .O.OOOOOO#$$=+=++-..-=+$#.   ",
"                    ..OOOOOOO##$**$+==++$*#.    ",
"                     .OOoOOOOOO####$***$##.     ",
"                      .O.OOOoOOOOOO#####O.      ",
"                       ..OOO.OOOO.XOOOO@.       ",
"                         ..O.OOOO.X@@@@.        ",
"                           ..OOOO.X@@@.         ",
"                             ......@@@.         ",
"                                  .X@.          ",
"                                   .X.          ",
"                                    ..          ",
"                                                ",
"                                                ",
"                                                "
};
