/* XPM */
static char *result[] = {
/* columns rows colors chars-per-pixel */
"48 48 14 1 ",
"  c #2F2F2E",
". c #3B3B39",
"X c #5E182C",
"o c #741A33",
"O c #69483A",
"+ c #484846",
"@ c #9E293B",
"# c #D2735D",
"$ c #DA8335",
"% c #DAA935",
"& c #EC8C76",
"* c #9299A4",
"= c #F1F0FD",
"- c None",
/* pixels */
"------------------------------------------------",
"------------------------------------------------",
"------------------------------------------------",
"------------------------------------------------",
"------------------------------------------------",
"---------------       --------------------------",
"------------   +..... -----      ---------------",
"----------  +.....   ----  +.... ---------------",
"--------- +...... ----   +...   ----------------",
"-------- +.....       +..... -------------------",
"------- +...Xooooo+++....... -------------------",
"------ +.o@@oo@@o+........  --------------------",
"------ +o@@@@@@+.......oX   --------------------",
"------ o@@@o@@+...oooooo... --------------------",
"----- @@o@o@@@.o@@o@o@@oooX --------------------",
"----- @o@@o@@@@@@@o@@@@@oo.. -------------------",
"---- oo%%%%oo@@o@@@@@@@ooooo -------------------",
"---- o%%O%%%ooo@@@@@@@@@@ooo -------------------",
"--- %o$%O%%$ooo%%oo@@@@@@@oo   ---   -----------",
"--- $o$$O$$$oo$O$$oo@@@@ooooX .   +. -----------",
"--- ooo$$$$oooo$$oo@@@@@@@ooo X...+. -----------",
"-- @@@@oooo@@@ooo@@@@@@@@ooooX ooX.. -----------",
"-  oo@@@@@@@oooo@@@@@@oooX....  oooX. ----------",
"  @&#ooooooo&&&#o@@@@@@......... oooX. ---------",
"+ @*O#&&&&&#OOO&#oooooo+......... oooX. --------",
"+  = O* = = =O*O&#####X +.........  ooX      ---",
"    # =     = = =# # #@o +..........    .... ---",
"--- #         =  & # #@oo ++............... ----",
"--- #=           & &#@oooo  ++..........   -----",
"--- #*  X XXXX   & &#@oooooo  +++++++   o.+  ---",
"---    X XXXXXXX & #@ooooooo         ooooo...   ",
"--- =  XXXXXXXX  & #@ooooooo --------  XooooooX ",
"--- =  XX  XX  = &#@oooooooo ----------   XXX  -",
"-- @&O=   =  = =O##@oooooXo --------------   ---",
"-- @#O*=  =OO*O*##@oooooo o --------------------",
"--- @&#OO**O#&&#@@ooooooo  ---------------------",
"---- @@#&&&#@@@@ooooooXoo ----------------------",
"----- o@@@@@ooooooXooo o -----------------------",
"------ +oooo. oooo ooo  ------------------------",
"------- ++++. oooo o  --------------------------",
"-------- +++. oooo  ----------------------------",
"-------- +++      ------------------------------",
"--------- +. -----------------------------------",
"--------- . ------------------------------------",
"---------  -------------------------------------",
"------------------------------------------------",
"------------------------------------------------",
"------------------------------------------------"
};
