/* XPM */
static char *_be7a2054699499bee6558ba13a289b09bwWgLOTOgWRK0Gw[] = {
/* columns rows colors chars-per-pixel */
"48 48 14 1 ",
"  c None",
". c #2F2F2E",
"X c #3B3B39",
"o c #5E182C",
"O c #741A33",
"+ c #69483A",
"@ c #484846",
"# c #9E293B",
"$ c #D2735D",
"% c #DA8335",
"& c #DAA935",
"* c #EC8C76",
"= c #9299A4",
"- c #F1F0FD",
/* pixels */
"                                                ",
"                                                ",
"                                                ",
"                                                ",
"                                                ",
"                                                ",
"               .......                          ",
"            ...@XXXXX.     ......        ...    ",
"          ..@XXXXX...    ..@XXXX.       .@XX... ",
"         .@XXXXXX.    ...@XXX...    ....@XoOOO. ",
"        .@XXXXX.......@XXXXX.       .@XXXoOo..  ",
"       .@XXXoOOOOO@@@XXXXXXX.        .@XoOO.    ",
"      .@XO##OO##O@XXXXXXXX..         .@XOOo.    ",
"      .@O######@XXXXXXXOo...       ...@XOO.     ",
"      .O###O##@XXXOOOOOOXXX.       .@X@XOO.     ",
"     .##O#O###XO##O#O##OOOo.        .@XXOO.     ",
"     .#O##O#######O#####OOXX.       .@XXOO.     ",
"    .OO&&&&OO##O#######OOOOO.   ... .@XoOO.     ",
"    .O&+&&&&OOO##########OOO.   .@X..XoOOO.     ",
"   .&O%+&&&%OOO&&OO#######OO.....@XXXoOOOO.     ",
"   .%O%+%%%%OO%+%%OO####OOOOo.XXXXXoOOOOOO.     ",
"   .OOO%%%%OOOO%%OO#######OOO.OOOOOOOOOOOo.     ",
"  .####OOOO###OOO########OOOOo.OOOOOOOOOo.      ",
" ..OO#######OOOO######OOOoXXXX..OOOOOOOo.       ",
"..#*$OOOOOOO***$O######XXXXXXXXX.OOOOOo.        ",
"@.#=+$*****$+++*$OOOOOO@XXXXXXXXX.OOo..         ",
"@..-.+=.-.-.-+=+*$$$$$o.@XXXXXXXXX...   .....   ",
"....$.-.....-.-.-$.$.$#O.@XXXXXXXXXX....XXXX.   ",
"   .$.........-..*.*$#OOO.@@XXXXXXXXXXXXXXX.    ",
"   ..-..o.oooo...*.$#OOOOO..@@XXXXXXXXXX...     ",
"   .-=.o.oooooo..*.$#OOOOOOO..@@@@@@@...        ",
"   .-..oo..oo..-.*$#OOOOOOOO.........           ",
"  .#*+-...-..-.-+$$#OOOOOoO.                    ",
"  .#$+=-..-++=+=$$#OOOOOO.O.                    ",
"   .#*$++==+$**$##OOOOOOO..                     ",
"    .##$***$####OOOOOOoOO.                      ",
"     .O#####OOOOOOoOOO.O.                       ",
"      .@OOOOX.OOOO.OOO..                        ",
"       .@@@@X.OOOO.O..                          ",
"        .@@@X.OOOO..                            ",
"        .@@@......                              ",
"         .@X.                                   ",
"         .X.                                    ",
"         ..                                     ",
"                                                ",
"                                                ",
"                                                ",
"                                                "
};
