/* XPM */
static char *result[] = {
/* columns rows colors chars-per-pixel */
"48 48 234 2 ",
"   c #21263F",
".  c #212640",
"X  c #212740",
"o  c #212641",
"O  c #212741",
"+  c #222740",
"@  c #222741",
"#  c #222742",
"$  c #222743",
"%  c #222841",
"&  c #222842",
"*  c #232842",
"=  c #222843",
"-  c #232843",
";  c #232943",
":  c #222844",
">  c #232844",
",  c #232944",
"<  c #232945",
"1  c #232946",
"2  c #232A46",
"3  c #232A47",
"4  c #242945",
"5  c #242946",
"6  c #242947",
"7  c #242A46",
"8  c #242A47",
"9  c #242A48",
"0  c #252A48",
"q  c #242B48",
"w  c #252B48",
"e  c #242A49",
"r  c #252A49",
"t  c #242B49",
"y  c #252B49",
"u  c #242A4A",
"i  c #252B4A",
"p  c #252B4B",
"a  c #252C49",
"s  c #252C4A",
"d  c #252C4B",
"f  c #262C4A",
"g  c #262C4B",
"h  c #262D4B",
"j  c #252C4C",
"k  c #262C4C",
"l  c #262D4C",
"z  c #272D4C",
"x  c #262C4D",
"c  c #272C4D",
"v  c #262D4D",
"b  c #272D4D",
"n  c #262D4E",
"m  c #272D4E",
"M  c #262D4F",
"N  c #272D4F",
"B  c #262E4E",
"V  c #262E4F",
"C  c #272E4F",
"Z  c #272D50",
"A  c #272E50",
"S  c #272F50",
"D  c #272E51",
"F  c #272F51",
"G  c #272F52",
"H  c #282E50",
"J  c #282E51",
"K  c #282F51",
"L  c #282E52",
"P  c #282F52",
"I  c #292F52",
"U  c #282F53",
"Y  c #292F53",
"T  c #282F54",
"R  c #283052",
"E  c #283053",
"W  c #293053",
"Q  c #283054",
"!  c #293054",
"~  c #293055",
"^  c #293155",
"/  c #2A3054",
"(  c #2A3055",
")  c #2A3155",
"_  c #2A3255",
"`  c #293056",
"'  c #293156",
"]  c #2A3156",
"[  c #2A3157",
"{  c #2A3257",
"}  c #2B3257",
"|  c #293158",
" . c #2A3058",
".. c #2A3258",
"X. c #2B3258",
"o. c #2B3358",
"O. c #2A3259",
"+. c #2B3259",
"@. c #2A3359",
"#. c #2B3359",
"$. c #2B335A",
"%. c #2B335B",
"&. c #2C335B",
"*. c #2B345B",
"=. c #2B355B",
"-. c #2C345A",
";. c #2C355B",
":. c #2B335C",
">. c #2C335C",
",. c #2B345D",
"<. c #2C345C",
"1. c #2D345C",
"2. c #2C355C",
"3. c #2C345D",
"4. c #2C355D",
"5. c #2D355D",
"6. c #2C345E",
"7. c #2C355E",
"8. c #2D355E",
"9. c #2C355F",
"0. c #2D355F",
"q. c #2D365F",
"w. c #2D3560",
"e. c #2D3561",
"r. c #2E3560",
"t. c #2D3660",
"y. c #2D3760",
"u. c #2D3661",
"i. c #2D3761",
"p. c #2E3660",
"a. c #2E3661",
"s. c #2E3761",
"d. c #2F3761",
"f. c #2D3762",
"g. c #2E3662",
"h. c #2E3762",
"j. c #2E3663",
"k. c #2F3663",
"l. c #2E3763",
"z. c #2F3763",
"x. c #2E3764",
"c. c #2F3764",
"v. c #2F3765",
"b. c #2E3862",
"n. c #2F3862",
"m. c #2E3863",
"M. c #2F3863",
"N. c #2E3864",
"B. c #2F3864",
"V. c #2E3865",
"C. c #2F3865",
"Z. c #2F3965",
"A. c #2F3866",
"S. c #2F3966",
"D. c #2F3967",
"F. c #2F3968",
"G. c #313861",
"H. c #323862",
"J. c #333A63",
"K. c #303865",
"L. c #303965",
"P. c #323964",
"I. c #333A65",
"U. c #303966",
"Y. c #303867",
"T. c #303967",
"R. c #313967",
"E. c #303A67",
"W. c #343965",
"Q. c #343B67",
"!. c #353B67",
"~. c #303968",
"^. c #313968",
"/. c #303969",
"(. c #303A68",
"). c #313A68",
"_. c #313B68",
"`. c #303A69",
"'. c #313A69",
"]. c #313B69",
"[. c #323B69",
"{. c #303A6A",
"}. c #313A6A",
"|. c #313B6A",
" X c #313A6B",
".X c #313B6B",
"XX c #323B6A",
"oX c #323B6B",
"OX c #343B68",
"+X c #353B68",
"@X c #323C6A",
"#X c #323C6B",
"$X c #353C68",
"%X c #353C69",
"&X c #363C6A",
"*X c #363D6A",
"=X c #363D6B",
"-X c #313B6C",
";X c #323B6C",
":X c #323C6C",
">X c #323C6D",
",X c #363D6C",
"<X c #373D6C",
"1X c #373E6D",
"2X c #383E6D",
"3X c #383F6E",
"4X c #383F6F",
"5X c #383F70",
"6X c #394070",
"7X c #394071",
"8X c #304478",
"9X c #364E8B",
"0X c #375291",
"qX c #395598",
"wX c #3C5CA4",
"eX c #3C5CA5",
"rX c #3D5CA5",
"tX c #3D5DA6",
"yX c #3D5DA7",
"uX c #3D5EA8",
"iX c #3E5EA9",
"pX c #3E5EAA",
"aX c #3E5FAB",
"sX c #3E5FAC",
"dX c #3F60AD",
"fX c #3F61AD",
"gX c #3F61AE",
"hX c #3F61AF",
"jX c #3F62AE",
"kX c #3F62AF",
"lX c #4062B0",
"zX c #4062B1",
"xX c #4063B1",
"cX c #4063B2",
/* pixels */
"cXxXlXkXfXaXiXyXrXeXrXyXiXaXdXhXlXxXcXxXlXhXdXaXuXtXwXwXeXyXiXaXdXkXzXcXcXcXcXcXcXcXcXcXcXcX9XcX",
"qX6X5X4X  <X&X    Q.OX%X  ,X1X    6X7X6X  4X1X    +XQ.Q.  $X&X    4X5X6X  7X7X    7X7X7X  %X7XcX",
"cXG.                                                                                        6XcX",
"cX                                            . . . + + . .                                   cX",
"cX7X                    . . . . O @ @ % # = > < 2 7 < , > = # @ + . .                       7XcX",
"cX7X                  . @ @ @ & > < < 1 1 8 w i g p a r 9 8 1 > & # @ + .                   7XcX",
"cX7X            . + . @ @ X X @ > 8 r p k n A J P H C M v k d y 8 < = & @ + X .             7XcX",
"cX              . + @ @ @ .   @ < y v H U ) [ #.+.X.^ ^ Q ~ U D v i 8 < = & @ .               cX",
"cX              X @ @ # @ @ X & 8 k L ] #.<.8.r.t.8.<.<.<.3.:.O.` G n a 1 > $ O .             cX",
"cX7X            X # & = - - > 5 d A ] %.7.s.c.A.Z.x.h.s.k.N.m.h.7.+.! N i 7 , * o .         7XcX",
"cX7X          . @ # > 1 8 9 y k A ^ %.0.z.K.~.].(.E.U.S.E.'.`.~.B.w.@.T m i 3 > # X         7XcX",
"cX            . @ - < 0 d n D W [ %.0.l.S.(.{.XX|.}.`.).{.|.#X.X~.z.6.o.R b i 5 : @           cX",
"cX6X          . # , 8 d A E { $.5.p.M.U.).|.oX@X;X.X X|. XoX:X:X].A.h.3...I x 9 < & .       6XcX",
"zX5X          . # ; 8 c Y } 3.t.l.C.T.'.|..X:X:X:X:X.X.X.X.X.X.X}.T.B.a.<.' A y < & .       5XzX",
"kX4X        . + % > r C ) %.a.B.U.(.}.|.-X:X>X>X>X:X;X;X-X;X.X.X|.'.T.C.t.#.F y = @         4XkX",
"dX            X # < y Z [ 8.x.Y.'.|..XoX#X:X>X>X>X>X>X:X:X:X:X;X-X.X|.(.M.>.A 7 @             dX",
"aX          .   # , r C [ 9.v.(.|.;X:X:X:X:X>X>X>X>X>X>X>X>X>X:X>X:X-X].U.<.C < X             aX",
"iX&X          . @ - 8 n [ 0.Z._..X#X>X:X:X:X>X>X>X>X>X>X>X>X>X>X>X>X:XXXS.2.n > .           &XiX",
"yX$X          . + & 6 v [ 0.C.)..X:X>X:X:X:X:X:X>X>X>X>X>X>X>X>X>X>X:X#XS.%.v - .           $XyX",
"eX                @ < x ` 7.V.'..X:X>X:X;X.X.X-X-X;X:X:X>X>X>X>X>X:X:XXXA.#.k &               eX",
"wXQ.              @ < x ' 0.B.`..X:X>X>X-X.X|.|.}.|..X-X:X:X>X:X:X;X|.'.l.{ i #             Q.wX",
"wXQ.            . @ 4 n [ 0.C.`..X;X>X:X;X.X'.~.(.{.}..X;X:X>X:X-X.X].Y.e.~ r #             Q.wX",
"tX+X          . X = 9 C +.u.L.'..X:X>X:X-X|.~.D.Y.(.(.}.-X:X>X:X-X.X{.A.q.! 0 @             +XtX",
"uX          . X # < i P %.l.~.|..X:X>X>X-X|.(.T.T.D.(.}..X:X:X-X-X.X].T.t.~ 0 @               uX",
"pX          . X @ 4 h ^ 4.B.)..X;X>X>X>X:X|.{.`.(.(.(.].|..X.X-X.XoX|.~.f.) w @               aX",
"aX&X          . # 2 x ) 8.S.]..X:X>X>X:X:X.X|.|.}.}.}.}. X|.-X.X;X;X#X`.h.) 9 @             1XdX",
"sX=X            @ 4 x ] 8.C.`.;X:X>X>X;XoX.X-X;X:X;X.X.X.X.X-X-X:X:X:X{.i./ 7 +             4XhX",
"dX            . @ < j ^ ,.v.).|.:X:X;X.X.X-X;X>X>X:X:X;X:X-X-X:X>X>X:X).0.K < .               lX",
"jX1X          . & 1 k W -.d.S.{.|..X.X.X.X-X:X>X>X>X>X:X>X>X;X:X>X>X:XS.&.k #               6XxX",
"lX4X      .   + $ 6 l W O.8.l.K.E./.`.{.|.-X:X>X>X>X>X>X>X>X>X>X>X>X@XV.` 9 X               7XcX",
"xX4X      . X # ; 7 z P { <.t.l.C.U.E.}..X;X>X>X>X>X>X>X>X>X>X>X>X>X].r.D > .               6XxX",
"lX        X @ & , 9 k K | 3.t.b.B.A.E.{..X:X>X>X>X:X:X>X>X>X>X>X>X:XR.;.k #                   lX",
"hX      . + @ # = 7 k K #.t.f.B.K.A.~.{..X:X>X>X:X:X-X;X:X-X>X:X:X.Xc.' q X           .       hX",
"dX1X    . + + O @ > e A O.y.Z.D.S.~.(.|..X:X:X:X;X-X.X.X.X.X.X-XoX(.0.S > .           .     1XdX",
"aX,X    . + .   . @ > p ^ q.D.(.T.(.`.|.:X>X>X>X:X-X|.|.|.{.|.|.`.M.o.i #             .     ,XaX",
"iX      .           @ < N *.c.(.F.E.'..X;X>X>X:X;X.X}.`.^.~.(.~.C.4.D < .             .       iX",
"yX%X                  # t ( t.K.S.E.`.|.-X>X>X:X:X-X|.`.T.S.Z.c.t._ y #                     %XyX",
"rXOX                  X < C o.p.x.Z.~..X.X>X>X>X:X;X.X}.T.C.l.q.#.v > .                     OXrX",
"eXQ.                    & r J  .1.s.S.`..X:X>X:X:X:XoX'.T.g.7...C 2 @                       Q.eX",
"rX                      @ : t B U #.t.L.).{.}.{.[.'.'.S.b.=.] C e #                           rX",
"yX                      . @ & , u C _ >.p.b.l.n.h.j.p.3.O.T n 9 = .                 .         yX",
"iX&X                .         + # 4 f V ! ` [ [ { ' ! H x y 5 = +                 X .       &XiX",
"aX<X              + +           + @ - 4 7 y y s i y 8 < - # @ +                 . +         <XaX",
"fX              . X +               + @ @ @ # # # @ @ + . . .                     X .         fX",
"kX4X                .                         . . .                                         4XkX",
"gX,X                                                                                        5XlX",
"8X7X&X  5X7X7X    7X6X  2X,X*X    W.J.  P.I.!.    1X4X  6X7X6X    1X,X  %XOXQ.    &X<X  3XH.6XxX",
"cXcXcXcXcXcXcXcXcXcXcXcXcXzXkXdXaXiXyXeXwXwXtXuXaXdXhXlXxXcXxXlXhXdXaXiXyXrXeXrXyXiXaXfXkXlX0XcX"
};
