/* XPM */
static char *result[] = {
/* columns rows colors chars-per-pixel */
"48 48 51 1 ",
"  c #412320",
". c #353B66",
"X c #373D6C",
"o c #383F70",
"O c #394071",
"+ c #434F65",
"@ c #626265",
"# c #66676C",
"$ c #6C6D73",
"% c #6E7076",
"& c #727277",
"* c #72747C",
"= c #77787D",
"- c #757781",
"; c #777883",
": c #7A7B85",
"> c #7B7D8A",
", c #6F7F9F",
"< c #7E808D",
"1 c #7E8091",
"2 c #81828E",
"3 c #828493",
"4 c #868895",
"5 c #898B97",
"6 c #838699",
"7 c #868A9B",
"8 c #8A8D9D",
"9 c #8B8DA2",
"0 c #8E91A5",
"q c #8895AF",
"w c #9093A5",
"e c #9295AB",
"r c #9599AE",
"t c #9397B1",
"y c #9699B2",
"u c #999DB6",
"i c #9A9EBA",
"p c #9DA1BD",
"a c #A0A3BF",
"s c #9EA3C1",
"d c #A1A6C5",
"f c #A3A8C7",
"g c #A2A7C8",
"h c #A5AACC",
"j c #A8ADCF",
"k c #A6B0C4",
"l c #A7ACD0",
"z c #A9AED2",
"x c #ABB1D6",
"c c #AEB4DA",
"v c #B0B6DE",
/* pixels */
"OOOOOOOOOOOOOOOOOOOOOOOOOOOOOOOOOOOOOOOOOOOOOOOO",
"OOOOOOOOOOOOOOOOOOOOOOOOOOOOOOOOOOOOOOOOOOOOOOOO",
"OOOOOOOOOOOOOOOOOOOOOOOOOOOOOOOOOOOOOOOOOOOOOOOO",
"OOOOOOOOOOOOOOOOOOOOOOOOOOOOOOOOOOOOOOOOOOOOOOOO",
"OOOOOOOOOOOOOOOOOOOOOOOOOOOOOOOOOOOOOOOOOOOOOOOO",
"OOOOOOOOOOOOOOOOOOOOOOOOOOOOOOOOOOOOOOOOOOOOOOOO",
"OOOOOOOOOOOOOOOOOOOqqqqqqqqqOOOOOOOOOOOOOOOOOOOO",
"OOOOOOOOOOOOOOOOOOOqqqqqqqqqOOOOOOOOOOOOOOOOOOOO",
"OOOOOOOOOOOOOOOOoooqqqqqqqqqOOOOOOOOOOOOOOOOOOOO",
"OOOOOOOOOOqqqqqq1q+qqqqqqqqqO+qqqqqqqOOOOOOOOOOO",
"OOOOOOOOOOqqqqqqqq+kkkkkxkkk++qqqqqqqOOOOOOOOOOO",
"OOOOOOOOOOqqqqqqqq+kkkkkkkkk++qqqqqqqOOOOOOOOOOO",
"+qqqqqqqqO1iqq1qqq+,,,,,,,,,++qqqqqqq++qqqqqqq++",
"+qqqqqqqq+kkkzlgkk+,,,,,,,,,++kkkkkkk++qqqqqqq++",
"+qqqqqqqq+klklllkk+,,,,,,,,,++kkkkkkk++qqqqqqq++",
"+qqqqqqqq+111111,,+,,,,,,,,,++,,,,,,,++qqqqqq1++",
"+kkkkkkkvO,,,,,,,,+,q1,,,,,,O+1,,,,,,O+kkkkkkk++",
"+kkkkkkxkO,,,,,1,,+,11,,,,,,++,,,1,,1O+kkkkkkk++",
"+,,,,,,,1+1,,,1q11qqk1iqgqgsss,,1111,O+,,,,,,,++",
"+,,,,,,,,1111q1ksqqk1ssqgggggggggl1q11<,,,,,,,++",
"+,,,,,,,,<<11si1kqsskskggllllllgs1p11<11,,,,,,++",
"+,,,q1,,,<11i1ssklgkgllllxlxxllgkii11111,,,,,,++",
"+++++++++111sssgllllllxlxxxxxxxlkpk1111+++++++++",
"+++++++++1111ssglllxxccxccccvvxlkkkkqq1+++++++++",
"+kkkkkkkc11qggglxzcccccvccccvcczlgs1s11vkkkkkx++",
"+,,,,,,,111qqgllzxccccvvvvvvvvccllgiii11,,,,,,++",
"+,,,,,,,,11qssllxvcvvcvvvvvvvvcxxlksii11,,,,,,++",
"+,,,,,,,11qqsgllxvvvvvvvvvvvvvvcclkli1q1,,,,,,++",
"+,,,,,,,,1qsqslxcvvvvvvvvvvvvvvcxzkqss1,,,,,,,++",
"+,,,,,,,111qkklzccvvvvvvvvvvvvvcczlkqqqq,,,,,1++",
"+,,,,,,,q11sqllccccvvvvvvvvvvvvcxxlgk111,,,,11++",
"+++++++++111sllzxcvvvvvvvvvvvvvcczlgkk1++++++++@",
"+++++++++11ggglxxcvvvvvvvvvvvvvcxzlss1qO++OO++++",
"+kkkkkkkk1qqgglxccvvvvvvvvvvvvvcczzsgqqjkkllkk++",
"+,,,,,,,,1qqqgllxccvvvvvvvvvvvvxxzhsqq1,111,11++",
"+,,,,,,,,11kggllxxcvcvcvvvvvvvccxzspsq1111,,,1++",
"+,,,,,,,111kqsgllxxxcxcvccccvccczlspe811,,,,,,OO",
"+,,,,,,,q1q1sssggllzzxxvxxxcccxxlspy0711,,,,,,++",
"+,,,,,,,111g1g1lsskgkhkkzzzzxxlzssp07<;1,,,,,,++",
"+,,,,,,,,11111s1iqiissaagggkhssssqq71<*1,,,,,1++",
"++++++++O1<<<111qwrrruuuikppggkl1k1<:%$+++++++++",
"+++++++oO$$<%<1111181wwr1p1k1k11q11:=%@+++++++++",
"+kkkkkkkk+%%$$<%<:<1<11w1q111q1111=%%#+kxkkkkk++",
"+,,,,1,,,                    +         ,,,,,,,++",
"+,,,,,,,1                              ,,,,,,,++",
"+,,,,,,,,                              ,,,,,,,++",
"+,,,,,,,,                             .,,,,,,,++",
"+,,,,,,,,                              ,,,,,,,++"
};
